# xmcd
#
# Track frame offsets:
#	150
#	17592
#	36571
#	52263
#	66685
#	79359
#	95014
#	108722
#	123301
#	141333
#	156115
#	169267
#	184834
#	201371
#	216256
#
# Disc length: 3099 seconds
#
# Revision: 0
# Processed by: cddbd v1.5.1PL0 Copyright (c) Steve Scherf et al.
# Submitted via: audiograbber 1.83.01
#
DISCID=f20c190f
DTITLE=V - CB60164
DYEAR=1900
DGENRE=Karaoke Country
TTITLE0=John Michael Montgomery - IF You've Got Love
TTITLE1=John Michael Montgomery - Rope The Moon
TTITLE2=John Michael Montgomery - Kick It Up
TTITLE3=John Michael Montgomery - No Man's Land
TTITLE4=John Michael Montgomery - Line On Love
TTITLE5=Jeff Carson - Not On Your Love
TTITLE6=Jeff Carson - Holdin' ON To Something
TTITLE7=Mark Chestnutt - Broken Promise Land
TTITLE8=Mark Chestnutt - Old Country
TTITLE9=Mark Chestnutt - Woman Sensuous Woman
TTITLE10=Mark Chestnutt - Gonna Get A Life
TTITLE11=Mark Chestnutt - Down In Tennessee
TTITLE12=Mark Chestnutt - Trouble
TTITLE13=Mark Chestnutt - It Wouldn't Hurt To Have Wings
TTITLE14=Mark Chestnutt - Thank God For Believers
EXTD=Chartbusters\n
EXTT0=
EXTT1=
EXTT2=
EXTT3=
EXTT4=
EXTT5=
EXTT6=
EXTT7=
EXTT8=
EXTT9=
EXTT10=
EXTT11=
EXTT12=
EXTT13=
EXTT14=
PLAYORDER=
